<svg xmlns="http://www.w3.org/2000/svg" width="1200" height="380" viewBox="0 0 1200 380">
  <defs>
    <style>
      .box { fill: #0f172a; stroke: #334155; stroke-width: 2; rx: 10; }
      .box-light { fill: #0b1324; stroke: #334155; stroke-width: 2; rx: 10; }
      .label { fill: #e2e8f0; font: 12.5px system-ui, -apple-system, Segoe UI, Roboto, Helvetica, Arial, sans-serif; }
      .title { fill: #f8fafc; font: 14px system-ui, -apple-system, Segoe UI, Roboto, Helvetica, Arial, sans-serif; font-weight: 600; }
      .arrow { stroke: #94a3b8; stroke-width: 2; fill: none; }
    </style>
    <marker id="arrow" viewBox="0 0 10 10" refX="9" refY="5" markerWidth="6" markerHeight="6" orient="auto-start-reverse">
      <path d="M 0 0 L 10 5 L 0 10 z" fill="#94a3b8" />
    </marker>
  </defs>

  <rect x="30" y="145" width="160" height="90" class="box" />
  <text x="110" y="180" class="title" text-anchor="middle">Client</text>
  <text x="110" y="200" class="label" text-anchor="middle">POST /v1/events/batch</text>

  <rect x="220" y="135" width="190" height="110" class="box" />
  <text x="315" y="170" class="title" text-anchor="middle">Validate</text>
  <text x="315" y="190" class="label" text-anchor="middle">Schema + timestamps</text>
  <text x="315" y="210" class="label" text-anchor="middle">Dedup + size cap</text>

  <rect x="440" y="135" width="170" height="110" class="box" />
  <text x="525" y="170" class="title" text-anchor="middle">Score</text>
  <text x="525" y="190" class="label" text-anchor="middle">Rule: event/category</text>
  <text x="525" y="210" class="label" text-anchor="middle">Fallback: score</text>

  <rect x="640" y="80" width="210" height="90" class="box-light" />
  <text x="745" y="118" class="title" text-anchor="middle">Redis</text>
  <text x="745" y="140" class="label" text-anchor="middle">Leaderboards + Metrics</text>

  <rect x="640" y="210" width="210" height="90" class="box-light" />
  <text x="745" y="248" class="title" text-anchor="middle">Redis Stream</text>
  <text x="745" y="270" class="label" text-anchor="middle">XADD stream:events:{env}</text>

  <rect x="890" y="210" width="240" height="90" class="box" />
  <text x="1010" y="248" class="title" text-anchor="middle">Worker</text>
  <text x="1010" y="270" class="label" text-anchor="middle">XREADGROUP + batch</text>

  <rect x="890" y="80" width="240" height="90" class="box-light" />
  <text x="1010" y="118" class="title" text-anchor="middle">Supabase</text>
  <text x="1010" y="140" class="label" text-anchor="middle">Events + Aggregates</text>

  <path d="M 190 190 L 220 190" class="arrow" marker-end="url(#arrow)" />
  <path d="M 410 190 L 440 190" class="arrow" marker-end="url(#arrow)" />
  <path d="M 610 165 L 640 125" class="arrow" marker-end="url(#arrow)" />
  <path d="M 610 215 L 640 255" class="arrow" marker-end="url(#arrow)" />
  <path d="M 850 255 L 890 255" class="arrow" marker-end="url(#arrow)" />
  <path d="M 1010 210 L 1010 170" class="arrow" marker-end="url(#arrow)" />
</svg>
